<?xml version='1.0' encoding='UTF-8'?>
<svg width="102.5mm" height="102.5mm" version="1.1" xmlns="http://www.w3.org/2000/svg"><rect x="10mm" y="10mm" width="2.5mm" height="2.5mm"/><rect x="12.5mm" y="10mm" width="2.5mm" height="2.5mm"/><rect x="15mm" y="10mm" width="2.5mm" height="2.5mm"/><rect x="17.5mm" y="10mm" width="2.5mm" height="2.5mm"/><rect x="20mm" y="10mm" width="2.5mm" height="2.5mm"/><rect x="22.5mm" y="10mm" width="2.5mm" height="2.5mm"/><rect x="25mm" y="10mm" width="2.5mm" height="2.5mm"/><rect x="32.5mm" y="10mm" width="2.5mm" height="2.5mm"/><rect x="42.5mm" y="10mm" width="2.5mm" height="2.5mm"/><rect x="50mm" y="10mm" width="2.5mm" height="2.5mm"/><rect x="52.5mm" y="10mm" width="2.5mm" height="2.5mm"/><rect x="55mm" y="10mm" width="2.5mm" height="2.5mm"/><rect x="57.5mm" y="10mm" width="2.5mm" height="2.5mm"/><rect x="60mm" y="10mm" width="2.5mm" height="2.5mm"/><rect x="62.5mm" y="10mm" width="2.5mm" height="2.5mm"/><rect x="65mm" y="10mm" width="2.5mm" height="2.5mm"/><rect x="67.5mm" y="10mm" width="2.5mm" height="2.5mm"/><rect x="75mm" y="10mm" width="2.5mm" height="2.5mm"/><rect x="77.5mm" y="10mm" width="2.5mm" height="2.5mm"/><rect x="80mm" y="10mm" width="2.5mm" height="2.5mm"/><rect x="82.5mm" y="10mm" width="2.5mm" height="2.5mm"/><rect x="85mm" y="10mm" width="2.5mm" height="2.5mm"/><rect x="87.5mm" y="10mm" width="2.5mm" height="2.5mm"/><rect x="90mm" y="10mm" width="2.5mm" height="2.5mm"/><rect x="10mm" y="12.5mm" width="2.5mm" height="2.5mm"/><rect x="25mm" y="12.5mm" width="2.5mm" height="2.5mm"/><rect x="30mm" y="12.5mm" width="2.5mm" height="2.5mm"/><rect x="32.5mm" y="12.5mm" width="2.5mm" height="2.5mm"/><rect x="37.5mm" y="12.5mm" width="2.5mm" height="2.5mm"/><rect x="40mm" y="12.5mm" width="2.5mm" height="2.5mm"/><rect x="42.5mm" y="12.5mm" width="2.5mm" height="2.5mm"/><rect x="45mm" y="12.5mm" width="2.5mm" height="2.5mm"/><rect x="47.5mm" y="12.5mm" width="2.5mm" height="2.5mm"/><rect x="55mm" y="12.5mm" width="2.5mm" height="2.5mm"/><rect x="60mm" y="12.5mm" width="2.5mm" height="2.5mm"/><rect x="75mm" y="12.5mm" width="2.5mm" height="2.5mm"/><rect x="90mm" y="12.5mm" width="2.5mm" height="2.5mm"/><rect x="10mm" y="15mm" width="2.5mm" height="2.5mm"/><rect x="15mm" y="15mm" width="2.5mm" height="2.5mm"/><rect x="17.5mm" y="15mm" width="2.5mm" height="2.5mm"/><rect x="20mm" y="15mm" width="2.5mm" height="2.5mm"/><rect x="25mm" y="15mm" width="2.5mm" height="2.5mm"/><rect x="32.5mm" y="15mm" width="2.5mm" height="2.5mm"/><rect x="35mm" y="15mm" width="2.5mm" height="2.5mm"/><rect x="37.5mm" y="15mm" width="2.5mm" height="2.5mm"/><rect x="45mm" y="15mm" width="2.5mm" height="2.5mm"/><rect x="47.5mm" y="15mm" width="2.5mm" height="2.5mm"/><rect x="57.5mm" y="15mm" width="2.5mm" height="2.5mm"/><rect x="60mm" y="15mm" width="2.5mm" height="2.5mm"/><rect x="62.5mm" y="15mm" width="2.5mm" height="2.5mm"/><rect x="67.5mm" y="15mm" width="2.5mm" height="2.5mm"/><rect x="75mm" y="15mm" width="2.5mm" height="2.5mm"/><rect x="80mm" y="15mm" width="2.5mm" height="2.5mm"/><rect x="82.5mm" y="15mm" width="2.5mm" height="2.5mm"/><rect x="85mm" y="15mm" width="2.5mm" height="2.5mm"/><rect x="90mm" y="15mm" width="2.5mm" height="2.5mm"/><rect x="10mm" y="17.5mm" width="2.5mm" height="2.5mm"/><rect x="15mm" y="17.5mm" width="2.5mm" height="2.5mm"/><rect x="17.5mm" y="17.5mm" width="2.5mm" height="2.5mm"/><rect x="20mm" y="17.5mm" width="2.5mm" height="2.5mm"/><rect x="25mm" y="17.5mm" width="2.5mm" height="2.5mm"/><rect x="30mm" y="17.5mm" width="2.5mm" height="2.5mm"/><rect x="32.5mm" y="17.5mm" width="2.5mm" height="2.5mm"/><rect x="37.5mm" y="17.5mm" width="2.5mm" height="2.5mm"/><rect x="42.5mm" y="17.5mm" width="2.5mm" height="2.5mm"/><rect x="45mm" y="17.5mm" width="2.5mm" height="2.5mm"/><rect x="52.5mm" y="17.5mm" width="2.5mm" height="2.5mm"/><rect x="57.5mm" y="17.5mm" width="2.5mm" height="2.5mm"/><rect x="60mm" y="17.5mm" width="2.5mm" height="2.5mm"/><rect x="65mm" y="17.5mm" width="2.5mm" height="2.5mm"/><rect x="67.5mm" y="17.5mm" width="2.5mm" height="2.5mm"/><rect x="70mm" y="17.5mm" width="2.5mm" height="2.5mm"/><rect x="75mm" y="17.5mm" width="2.5mm" height="2.5mm"/><rect x="80mm" y="17.5mm" width="2.5mm" height="2.5mm"/><rect x="82.5mm" y="17.5mm" width="2.5mm" height="2.5mm"/><rect x="85mm" y="17.5mm" width="2.5mm" height="2.5mm"/><rect x="90mm" y="17.5mm" width="2.5mm" height="2.5mm"/><rect x="10mm" y="20mm" width="2.5mm" height="2.5mm"/><rect x="15mm" y="20mm" width="2.5mm" height="2.5mm"/><rect x="17.5mm" y="20mm" width="2.5mm" height="2.5mm"/><rect x="20mm" y="20mm" width="2.5mm" height="2.5mm"/><rect x="25mm" y="20mm" width="2.5mm" height="2.5mm"/><rect x="35mm" y="20mm" width="2.5mm" height="2.5mm"/><rect x="40mm" y="20mm" width="2.5mm" height="2.5mm"/><rect x="42.5mm" y="20mm" width="2.5mm" height="2.5mm"/><rect x="47.5mm" y="20mm" width="2.5mm" height="2.5mm"/><rect x="50mm" y="20mm" width="2.5mm" height="2.5mm"/><rect x="55mm" y="20mm" width="2.5mm" height="2.5mm"/><rect x="57.5mm" y="20mm" width="2.5mm" height="2.5mm"/><rect x="62.5mm" y="20mm" width="2.5mm" height="2.5mm"/><rect x="67.5mm" y="20mm" width="2.5mm" height="2.5mm"/><rect x="75mm" y="20mm" width="2.5mm" height="2.5mm"/><rect x="80mm" y="20mm" width="2.5mm" height="2.5mm"/><rect x="82.5mm" y="20mm" width="2.5mm" height="2.5mm"/><rect x="85mm" y="20mm" width="2.5mm" height="2.5mm"/><rect x="90mm" y="20mm" width="2.5mm" height="2.5mm"/><rect x="10mm" y="22.5mm" width="2.5mm" height="2.5mm"/><rect x="25mm" y="22.5mm" width="2.5mm" height="2.5mm"/><rect x="30mm" y="22.5mm" width="2.5mm" height="2.5mm"/><rect x="35mm" y="22.5mm" width="2.5mm" height="2.5mm"/><rect x="42.5mm" y="22.5mm" width="2.5mm" height="2.5mm"/><rect x="45mm" y="22.5mm" width="2.5mm" height="2.5mm"/><rect x="47.5mm" y="22.5mm" width="2.5mm" height="2.5mm"/><rect x="60mm" y="22.5mm" width="2.5mm" height="2.5mm"/><rect x="62.5mm" y="22.5mm" width="2.5mm" height="2.5mm"/><rect x="65mm" y="22.5mm" width="2.5mm" height="2.5mm"/><rect x="70mm" y="22.5mm" width="2.5mm" height="2.5mm"/><rect x="75mm" y="22.5mm" width="2.5mm" height="2.5mm"/><rect x="90mm" y="22.5mm" width="2.5mm" height="2.5mm"/><rect x="10mm" y="25mm" width="2.5mm" height="2.5mm"/><rect x="12.5mm" y="25mm" width="2.5mm" height="2.5mm"/><rect x="15mm" y="25mm" width="2.5mm" height="2.5mm"/><rect x="17.5mm" y="25mm" width="2.5mm" height="2.5mm"/><rect x="20mm" y="25mm" width="2.5mm" height="2.5mm"/><rect x="22.5mm" y="25mm" width="2.5mm" height="2.5mm"/><rect x="25mm" y="25mm" width="2.5mm" height="2.5mm"/><rect x="30mm" y="25mm" width="2.5mm" height="2.5mm"/><rect x="35mm" y="25mm" width="2.5mm" height="2.5mm"/><rect x="40mm" y="25mm" width="2.5mm" height="2.5mm"/><rect x="45mm" y="25mm" width="2.5mm" height="2.5mm"/><rect x="50mm" y="25mm" width="2.5mm" height="2.5mm"/><rect x="55mm" y="25mm" width="2.5mm" height="2.5mm"/><rect x="60mm" y="25mm" width="2.5mm" height="2.5mm"/><rect x="65mm" y="25mm" width="2.5mm" height="2.5mm"/><rect x="70mm" y="25mm" width="2.5mm" height="2.5mm"/><rect x="75mm" y="25mm" width="2.5mm" height="2.5mm"/><rect x="77.5mm" y="25mm" width="2.5mm" height="2.5mm"/><rect x="80mm" y="25mm" width="2.5mm" height="2.5mm"/><rect x="82.5mm" y="25mm" width="2.5mm" height="2.5mm"/><rect x="85mm" y="25mm" width="2.5mm" height="2.5mm"/><rect x="87.5mm" y="25mm" width="2.5mm" height="2.5mm"/><rect x="90mm" y="25mm" width="2.5mm" height="2.5mm"/><rect x="40mm" y="27.5mm" width="2.5mm" height="2.5mm"/><rect x="45mm" y="27.5mm" width="2.5mm" height="2.5mm"/><rect x="50mm" y="27.5mm" width="2.5mm" height="2.5mm"/><rect x="55mm" y="27.5mm" width="2.5mm" height="2.5mm"/><rect x="57.5mm" y="27.5mm" width="2.5mm" height="2.5mm"/><rect x="62.5mm" y="27.5mm" width="2.5mm" height="2.5mm"/><rect x="65mm" y="27.5mm" width="2.5mm" height="2.5mm"/><rect x="10mm" y="30mm" width="2.5mm" height="2.5mm"/><rect x="12.5mm" y="30mm" width="2.5mm" height="2.5mm"/><rect x="15mm" y="30mm" width="2.5mm" height="2.5mm"/><rect x="17.5mm" y="30mm" width="2.5mm" height="2.5mm"/><rect x="20mm" y="30mm" width="2.5mm" height="2.5mm"/><rect x="25mm" y="30mm" width="2.5mm" height="2.5mm"/><rect x="27.5mm" y="30mm" width="2.5mm" height="2.5mm"/><rect x="30mm" y="30mm" width="2.5mm" height="2.5mm"/><rect x="32.5mm" y="30mm" width="2.5mm" height="2.5mm"/><rect x="35mm" y="30mm" width="2.5mm" height="2.5mm"/><rect x="40mm" y="30mm" width="2.5mm" height="2.5mm"/><rect x="42.5mm" y="30mm" width="2.5mm" height="2.5mm"/><rect x="45mm" y="30mm" width="2.5mm" height="2.5mm"/><rect x="52.5mm" y="30mm" width="2.5mm" height="2.5mm"/><rect x="55mm" y="30mm" width="2.5mm" height="2.5mm"/><rect x="60mm" y="30mm" width="2.5mm" height="2.5mm"/><rect x="72.5mm" y="30mm" width="2.5mm" height="2.5mm"/><rect x="77.5mm" y="30mm" width="2.5mm" height="2.5mm"/><rect x="82.5mm" y="30mm" width="2.5mm" height="2.5mm"/><rect x="87.5mm" y="30mm" width="2.5mm" height="2.5mm"/><rect x="10mm" y="32.5mm" width="2.5mm" height="2.5mm"/><rect x="12.5mm" y="32.5mm" width="2.5mm" height="2.5mm"/><rect x="15mm" y="32.5mm" width="2.5mm" height="2.5mm"/><rect x="20mm" y="32.5mm" width="2.5mm" height="2.5mm"/><rect x="27.5mm" y="32.5mm" width="2.5mm" height="2.5mm"/><rect x="32.5mm" y="32.5mm" width="2.5mm" height="2.5mm"/><rect x="45mm" y="32.5mm" width="2.5mm" height="2.5mm"/><rect x="52.5mm" y="32.5mm" width="2.5mm" height="2.5mm"/><rect x="57.5mm" y="32.5mm" width="2.5mm" height="2.5mm"/><rect x="60mm" y="32.5mm" width="2.5mm" height="2.5mm"/><rect x="67.5mm" y="32.5mm" width="2.5mm" height="2.5mm"/><rect x="75mm" y="32.5mm" width="2.5mm" height="2.5mm"/><rect x="85mm" y="32.5mm" width="2.5mm" height="2.5mm"/><rect x="87.5mm" y="32.5mm" width="2.5mm" height="2.5mm"/><rect x="90mm" y="32.5mm" width="2.5mm" height="2.5mm"/><rect x="12.5mm" y="35mm" width="2.5mm" height="2.5mm"/><rect x="15mm" y="35mm" width="2.5mm" height="2.5mm"/><rect x="17.5mm" y="35mm" width="2.5mm" height="2.5mm"/><rect x="20mm" y="35mm" width="2.5mm" height="2.5mm"/><rect x="22.5mm" y="35mm" width="2.5mm" height="2.5mm"/><rect x="25mm" y="35mm" width="2.5mm" height="2.5mm"/><rect x="27.5mm" y="35mm" width="2.5mm" height="2.5mm"/><rect x="30mm" y="35mm" width="2.5mm" height="2.5mm"/><rect x="32.5mm" y="35mm" width="2.5mm" height="2.5mm"/><rect x="37.5mm" y="35mm" width="2.5mm" height="2.5mm"/><rect x="40mm" y="35mm" width="2.5mm" height="2.5mm"/><rect x="47.5mm" y="35mm" width="2.5mm" height="2.5mm"/><rect x="50mm" y="35mm" width="2.5mm" height="2.5mm"/><rect x="65mm" y="35mm" width="2.5mm" height="2.5mm"/><rect x="72.5mm" y="35mm" width="2.5mm" height="2.5mm"/><rect x="75mm" y="35mm" width="2.5mm" height="2.5mm"/><rect x="80mm" y="35mm" width="2.5mm" height="2.5mm"/><rect x="82.5mm" y="35mm" width="2.5mm" height="2.5mm"/><rect x="87.5mm" y="35mm" width="2.5mm" height="2.5mm"/><rect x="10mm" y="37.5mm" width="2.5mm" height="2.5mm"/><rect x="12.5mm" y="37.5mm" width="2.5mm" height="2.5mm"/><rect x="15mm" y="37.5mm" width="2.5mm" height="2.5mm"/><rect x="17.5mm" y="37.5mm" width="2.5mm" height="2.5mm"/><rect x="20mm" y="37.5mm" width="2.5mm" height="2.5mm"/><rect x="27.5mm" y="37.5mm" width="2.5mm" height="2.5mm"/><rect x="32.5mm" y="37.5mm" width="2.5mm" height="2.5mm"/><rect x="35mm" y="37.5mm" width="2.5mm" height="2.5mm"/><rect x="37.5mm" y="37.5mm" width="2.5mm" height="2.5mm"/><rect x="60mm" y="37.5mm" width="2.5mm" height="2.5mm"/><rect x="62.5mm" y="37.5mm" width="2.5mm" height="2.5mm"/><rect x="65mm" y="37.5mm" width="2.5mm" height="2.5mm"/><rect x="67.5mm" y="37.5mm" width="2.5mm" height="2.5mm"/><rect x="70mm" y="37.5mm" width="2.5mm" height="2.5mm"/><rect x="72.5mm" y="37.5mm" width="2.5mm" height="2.5mm"/><rect x="75mm" y="37.5mm" width="2.5mm" height="2.5mm"/><rect x="80mm" y="37.5mm" width="2.5mm" height="2.5mm"/><rect x="85mm" y="37.5mm" width="2.5mm" height="2.5mm"/><rect x="10mm" y="40mm" width="2.5mm" height="2.5mm"/><rect x="25mm" y="40mm" width="2.5mm" height="2.5mm"/><rect x="32.5mm" y="40mm" width="2.5mm" height="2.5mm"/><rect x="37.5mm" y="40mm" width="2.5mm" height="2.5mm"/><rect x="47.5mm" y="40mm" width="2.5mm" height="2.5mm"/><rect x="52.5mm" y="40mm" width="2.5mm" height="2.5mm"/><rect x="57.5mm" y="40mm" width="2.5mm" height="2.5mm"/><rect x="65mm" y="40mm" width="2.5mm" height="2.5mm"/><rect x="72.5mm" y="40mm" width="2.5mm" height="2.5mm"/><rect x="77.5mm" y="40mm" width="2.5mm" height="2.5mm"/><rect x="80mm" y="40mm" width="2.5mm" height="2.5mm"/><rect x="82.5mm" y="40mm" width="2.5mm" height="2.5mm"/><rect x="12.5mm" y="42.5mm" width="2.5mm" height="2.5mm"/><rect x="15mm" y="42.5mm" width="2.5mm" height="2.5mm"/><rect x="17.5mm" y="42.5mm" width="2.5mm" height="2.5mm"/><rect x="22.5mm" y="42.5mm" width="2.5mm" height="2.5mm"/><rect x="35mm" y="42.5mm" width="2.5mm" height="2.5mm"/><rect x="40mm" y="42.5mm" width="2.5mm" height="2.5mm"/><rect x="42.5mm" y="42.5mm" width="2.5mm" height="2.5mm"/><rect x="50mm" y="42.5mm" width="2.5mm" height="2.5mm"/><rect x="55mm" y="42.5mm" width="2.5mm" height="2.5mm"/><rect x="57.5mm" y="42.5mm" width="2.5mm" height="2.5mm"/><rect x="60mm" y="42.5mm" width="2.5mm" height="2.5mm"/><rect x="62.5mm" y="42.5mm" width="2.5mm" height="2.5mm"/><rect x="67.5mm" y="42.5mm" width="2.5mm" height="2.5mm"/><rect x="75mm" y="42.5mm" width="2.5mm" height="2.5mm"/><rect x="87.5mm" y="42.5mm" width="2.5mm" height="2.5mm"/><rect x="90mm" y="42.5mm" width="2.5mm" height="2.5mm"/><rect x="12.5mm" y="45mm" width="2.5mm" height="2.5mm"/><rect x="17.5mm" y="45mm" width="2.5mm" height="2.5mm"/><rect x="20mm" y="45mm" width="2.5mm" height="2.5mm"/><rect x="22.5mm" y="45mm" width="2.5mm" height="2.5mm"/><rect x="25mm" y="45mm" width="2.5mm" height="2.5mm"/><rect x="27.5mm" y="45mm" width="2.5mm" height="2.5mm"/><rect x="32.5mm" y="45mm" width="2.5mm" height="2.5mm"/><rect x="35mm" y="45mm" width="2.5mm" height="2.5mm"/><rect x="42.5mm" y="45mm" width="2.5mm" height="2.5mm"/><rect x="45mm" y="45mm" width="2.5mm" height="2.5mm"/><rect x="47.5mm" y="45mm" width="2.5mm" height="2.5mm"/><rect x="52.5mm" y="45mm" width="2.5mm" height="2.5mm"/><rect x="55mm" y="45mm" width="2.5mm" height="2.5mm"/><rect x="60mm" y="45mm" width="2.5mm" height="2.5mm"/><rect x="62.5mm" y="45mm" width="2.5mm" height="2.5mm"/><rect x="72.5mm" y="45mm" width="2.5mm" height="2.5mm"/><rect x="80mm" y="45mm" width="2.5mm" height="2.5mm"/><rect x="87.5mm" y="45mm" width="2.5mm" height="2.5mm"/><rect x="15mm" y="47.5mm" width="2.5mm" height="2.5mm"/><rect x="20mm" y="47.5mm" width="2.5mm" height="2.5mm"/><rect x="27.5mm" y="47.5mm" width="2.5mm" height="2.5mm"/><rect x="30mm" y="47.5mm" width="2.5mm" height="2.5mm"/><rect x="32.5mm" y="47.5mm" width="2.5mm" height="2.5mm"/><rect x="35mm" y="47.5mm" width="2.5mm" height="2.5mm"/><rect x="40mm" y="47.5mm" width="2.5mm" height="2.5mm"/><rect x="42.5mm" y="47.5mm" width="2.5mm" height="2.5mm"/><rect x="50mm" y="47.5mm" width="2.5mm" height="2.5mm"/><rect x="62.5mm" y="47.5mm" width="2.5mm" height="2.5mm"/><rect x="65mm" y="47.5mm" width="2.5mm" height="2.5mm"/><rect x="67.5mm" y="47.5mm" width="2.5mm" height="2.5mm"/><rect x="72.5mm" y="47.5mm" width="2.5mm" height="2.5mm"/><rect x="75mm" y="47.5mm" width="2.5mm" height="2.5mm"/><rect x="85mm" y="47.5mm" width="2.5mm" height="2.5mm"/><rect x="17.5mm" y="50mm" width="2.5mm" height="2.5mm"/><rect x="20mm" y="50mm" width="2.5mm" height="2.5mm"/><rect x="25mm" y="50mm" width="2.5mm" height="2.5mm"/><rect x="27.5mm" y="50mm" width="2.5mm" height="2.5mm"/><rect x="30mm" y="50mm" width="2.5mm" height="2.5mm"/><rect x="32.5mm" y="50mm" width="2.5mm" height="2.5mm"/><rect x="40mm" y="50mm" width="2.5mm" height="2.5mm"/><rect x="45mm" y="50mm" width="2.5mm" height="2.5mm"/><rect x="52.5mm" y="50mm" width="2.5mm" height="2.5mm"/><rect x="57.5mm" y="50mm" width="2.5mm" height="2.5mm"/><rect x="65mm" y="50mm" width="2.5mm" height="2.5mm"/><rect x="67.5mm" y="50mm" width="2.5mm" height="2.5mm"/><rect x="70mm" y="50mm" width="2.5mm" height="2.5mm"/><rect x="72.5mm" y="50mm" width="2.5mm" height="2.5mm"/><rect x="77.5mm" y="50mm" width="2.5mm" height="2.5mm"/><rect x="80mm" y="50mm" width="2.5mm" height="2.5mm"/><rect x="87.5mm" y="50mm" width="2.5mm" height="2.5mm"/><rect x="15mm" y="52.5mm" width="2.5mm" height="2.5mm"/><rect x="17.5mm" y="52.5mm" width="2.5mm" height="2.5mm"/><rect x="22.5mm" y="52.5mm" width="2.5mm" height="2.5mm"/><rect x="27.5mm" y="52.5mm" width="2.5mm" height="2.5mm"/><rect x="30mm" y="52.5mm" width="2.5mm" height="2.5mm"/><rect x="35mm" y="52.5mm" width="2.5mm" height="2.5mm"/><rect x="50mm" y="52.5mm" width="2.5mm" height="2.5mm"/><rect x="52.5mm" y="52.5mm" width="2.5mm" height="2.5mm"/><rect x="55mm" y="52.5mm" width="2.5mm" height="2.5mm"/><rect x="57.5mm" y="52.5mm" width="2.5mm" height="2.5mm"/><rect x="60mm" y="52.5mm" width="2.5mm" height="2.5mm"/><rect x="62.5mm" y="52.5mm" width="2.5mm" height="2.5mm"/><rect x="65mm" y="52.5mm" width="2.5mm" height="2.5mm"/><rect x="67.5mm" y="52.5mm" width="2.5mm" height="2.5mm"/><rect x="70mm" y="52.5mm" width="2.5mm" height="2.5mm"/><rect x="75mm" y="52.5mm" width="2.5mm" height="2.5mm"/><rect x="82.5mm" y="52.5mm" width="2.5mm" height="2.5mm"/><rect x="87.5mm" y="52.5mm" width="2.5mm" height="2.5mm"/><rect x="90mm" y="52.5mm" width="2.5mm" height="2.5mm"/><rect x="10mm" y="55mm" width="2.5mm" height="2.5mm"/><rect x="20mm" y="55mm" width="2.5mm" height="2.5mm"/><rect x="22.5mm" y="55mm" width="2.5mm" height="2.5mm"/><rect x="25mm" y="55mm" width="2.5mm" height="2.5mm"/><rect x="30mm" y="55mm" width="2.5mm" height="2.5mm"/><rect x="37.5mm" y="55mm" width="2.5mm" height="2.5mm"/><rect x="40mm" y="55mm" width="2.5mm" height="2.5mm"/><rect x="47.5mm" y="55mm" width="2.5mm" height="2.5mm"/><rect x="50mm" y="55mm" width="2.5mm" height="2.5mm"/><rect x="52.5mm" y="55mm" width="2.5mm" height="2.5mm"/><rect x="60mm" y="55mm" width="2.5mm" height="2.5mm"/><rect x="62.5mm" y="55mm" width="2.5mm" height="2.5mm"/><rect x="72.5mm" y="55mm" width="2.5mm" height="2.5mm"/><rect x="75mm" y="55mm" width="2.5mm" height="2.5mm"/><rect x="77.5mm" y="55mm" width="2.5mm" height="2.5mm"/><rect x="80mm" y="55mm" width="2.5mm" height="2.5mm"/><rect x="82.5mm" y="55mm" width="2.5mm" height="2.5mm"/><rect x="87.5mm" y="55mm" width="2.5mm" height="2.5mm"/><rect x="10mm" y="57.5mm" width="2.5mm" height="2.5mm"/><rect x="12.5mm" y="57.5mm" width="2.5mm" height="2.5mm"/><rect x="22.5mm" y="57.5mm" width="2.5mm" height="2.5mm"/><rect x="27.5mm" y="57.5mm" width="2.5mm" height="2.5mm"/><rect x="30mm" y="57.5mm" width="2.5mm" height="2.5mm"/><rect x="37.5mm" y="57.5mm" width="2.5mm" height="2.5mm"/><rect x="45mm" y="57.5mm" width="2.5mm" height="2.5mm"/><rect x="47.5mm" y="57.5mm" width="2.5mm" height="2.5mm"/><rect x="62.5mm" y="57.5mm" width="2.5mm" height="2.5mm"/><rect x="80mm" y="57.5mm" width="2.5mm" height="2.5mm"/><rect x="85mm" y="57.5mm" width="2.5mm" height="2.5mm"/><rect x="10mm" y="60mm" width="2.5mm" height="2.5mm"/><rect x="20mm" y="60mm" width="2.5mm" height="2.5mm"/><rect x="25mm" y="60mm" width="2.5mm" height="2.5mm"/><rect x="35mm" y="60mm" width="2.5mm" height="2.5mm"/><rect x="37.5mm" y="60mm" width="2.5mm" height="2.5mm"/><rect x="52.5mm" y="60mm" width="2.5mm" height="2.5mm"/><rect x="65mm" y="60mm" width="2.5mm" height="2.5mm"/><rect x="67.5mm" y="60mm" width="2.5mm" height="2.5mm"/><rect x="70mm" y="60mm" width="2.5mm" height="2.5mm"/><rect x="72.5mm" y="60mm" width="2.5mm" height="2.5mm"/><rect x="77.5mm" y="60mm" width="2.5mm" height="2.5mm"/><rect x="80mm" y="60mm" width="2.5mm" height="2.5mm"/><rect x="87.5mm" y="60mm" width="2.5mm" height="2.5mm"/><rect x="10mm" y="62.5mm" width="2.5mm" height="2.5mm"/><rect x="12.5mm" y="62.5mm" width="2.5mm" height="2.5mm"/><rect x="15mm" y="62.5mm" width="2.5mm" height="2.5mm"/><rect x="20mm" y="62.5mm" width="2.5mm" height="2.5mm"/><rect x="22.5mm" y="62.5mm" width="2.5mm" height="2.5mm"/><rect x="27.5mm" y="62.5mm" width="2.5mm" height="2.5mm"/><rect x="40mm" y="62.5mm" width="2.5mm" height="2.5mm"/><rect x="42.5mm" y="62.5mm" width="2.5mm" height="2.5mm"/><rect x="45mm" y="62.5mm" width="2.5mm" height="2.5mm"/><rect x="50mm" y="62.5mm" width="2.5mm" height="2.5mm"/><rect x="52.5mm" y="62.5mm" width="2.5mm" height="2.5mm"/><rect x="55mm" y="62.5mm" width="2.5mm" height="2.5mm"/><rect x="57.5mm" y="62.5mm" width="2.5mm" height="2.5mm"/><rect x="60mm" y="62.5mm" width="2.5mm" height="2.5mm"/><rect x="62.5mm" y="62.5mm" width="2.5mm" height="2.5mm"/><rect x="65mm" y="62.5mm" width="2.5mm" height="2.5mm"/><rect x="67.5mm" y="62.5mm" width="2.5mm" height="2.5mm"/><rect x="75mm" y="62.5mm" width="2.5mm" height="2.5mm"/><rect x="77.5mm" y="62.5mm" width="2.5mm" height="2.5mm"/><rect x="82.5mm" y="62.5mm" width="2.5mm" height="2.5mm"/><rect x="87.5mm" y="62.5mm" width="2.5mm" height="2.5mm"/><rect x="90mm" y="62.5mm" width="2.5mm" height="2.5mm"/><rect x="10mm" y="65mm" width="2.5mm" height="2.5mm"/><rect x="15mm" y="65mm" width="2.5mm" height="2.5mm"/><rect x="22.5mm" y="65mm" width="2.5mm" height="2.5mm"/><rect x="25mm" y="65mm" width="2.5mm" height="2.5mm"/><rect x="27.5mm" y="65mm" width="2.5mm" height="2.5mm"/><rect x="30mm" y="65mm" width="2.5mm" height="2.5mm"/><rect x="32.5mm" y="65mm" width="2.5mm" height="2.5mm"/><rect x="35mm" y="65mm" width="2.5mm" height="2.5mm"/><rect x="42.5mm" y="65mm" width="2.5mm" height="2.5mm"/><rect x="45mm" y="65mm" width="2.5mm" height="2.5mm"/><rect x="47.5mm" y="65mm" width="2.5mm" height="2.5mm"/><rect x="62.5mm" y="65mm" width="2.5mm" height="2.5mm"/><rect x="72.5mm" y="65mm" width="2.5mm" height="2.5mm"/><rect x="82.5mm" y="65mm" width="2.5mm" height="2.5mm"/><rect x="87.5mm" y="65mm" width="2.5mm" height="2.5mm"/><rect x="10mm" y="67.5mm" width="2.5mm" height="2.5mm"/><rect x="30mm" y="67.5mm" width="2.5mm" height="2.5mm"/><rect x="32.5mm" y="67.5mm" width="2.5mm" height="2.5mm"/><rect x="35mm" y="67.5mm" width="2.5mm" height="2.5mm"/><rect x="40mm" y="67.5mm" width="2.5mm" height="2.5mm"/><rect x="42.5mm" y="67.5mm" width="2.5mm" height="2.5mm"/><rect x="47.5mm" y="67.5mm" width="2.5mm" height="2.5mm"/><rect x="60mm" y="67.5mm" width="2.5mm" height="2.5mm"/><rect x="62.5mm" y="67.5mm" width="2.5mm" height="2.5mm"/><rect x="67.5mm" y="67.5mm" width="2.5mm" height="2.5mm"/><rect x="72.5mm" y="67.5mm" width="2.5mm" height="2.5mm"/><rect x="77.5mm" y="67.5mm" width="2.5mm" height="2.5mm"/><rect x="80mm" y="67.5mm" width="2.5mm" height="2.5mm"/><rect x="82.5mm" y="67.5mm" width="2.5mm" height="2.5mm"/><rect x="85mm" y="67.5mm" width="2.5mm" height="2.5mm"/><rect x="10mm" y="70mm" width="2.5mm" height="2.5mm"/><rect x="15mm" y="70mm" width="2.5mm" height="2.5mm"/><rect x="17.5mm" y="70mm" width="2.5mm" height="2.5mm"/><rect x="20mm" y="70mm" width="2.5mm" height="2.5mm"/><rect x="22.5mm" y="70mm" width="2.5mm" height="2.5mm"/><rect x="25mm" y="70mm" width="2.5mm" height="2.5mm"/><rect x="32.5mm" y="70mm" width="2.5mm" height="2.5mm"/><rect x="35mm" y="70mm" width="2.5mm" height="2.5mm"/><rect x="40mm" y="70mm" width="2.5mm" height="2.5mm"/><rect x="45mm" y="70mm" width="2.5mm" height="2.5mm"/><rect x="47.5mm" y="70mm" width="2.5mm" height="2.5mm"/><rect x="50mm" y="70mm" width="2.5mm" height="2.5mm"/><rect x="52.5mm" y="70mm" width="2.5mm" height="2.5mm"/><rect x="55mm" y="70mm" width="2.5mm" height="2.5mm"/><rect x="60mm" y="70mm" width="2.5mm" height="2.5mm"/><rect x="65mm" y="70mm" width="2.5mm" height="2.5mm"/><rect x="67.5mm" y="70mm" width="2.5mm" height="2.5mm"/><rect x="70mm" y="70mm" width="2.5mm" height="2.5mm"/><rect x="72.5mm" y="70mm" width="2.5mm" height="2.5mm"/><rect x="75mm" y="70mm" width="2.5mm" height="2.5mm"/><rect x="77.5mm" y="70mm" width="2.5mm" height="2.5mm"/><rect x="80mm" y="70mm" width="2.5mm" height="2.5mm"/><rect x="82.5mm" y="70mm" width="2.5mm" height="2.5mm"/><rect x="90mm" y="70mm" width="2.5mm" height="2.5mm"/><rect x="30mm" y="72.5mm" width="2.5mm" height="2.5mm"/><rect x="32.5mm" y="72.5mm" width="2.5mm" height="2.5mm"/><rect x="50mm" y="72.5mm" width="2.5mm" height="2.5mm"/><rect x="52.5mm" y="72.5mm" width="2.5mm" height="2.5mm"/><rect x="55mm" y="72.5mm" width="2.5mm" height="2.5mm"/><rect x="57.5mm" y="72.5mm" width="2.5mm" height="2.5mm"/><rect x="60mm" y="72.5mm" width="2.5mm" height="2.5mm"/><rect x="62.5mm" y="72.5mm" width="2.5mm" height="2.5mm"/><rect x="65mm" y="72.5mm" width="2.5mm" height="2.5mm"/><rect x="70mm" y="72.5mm" width="2.5mm" height="2.5mm"/><rect x="80mm" y="72.5mm" width="2.5mm" height="2.5mm"/><rect x="85mm" y="72.5mm" width="2.5mm" height="2.5mm"/><rect x="90mm" y="72.5mm" width="2.5mm" height="2.5mm"/><rect x="10mm" y="75mm" width="2.5mm" height="2.5mm"/><rect x="12.5mm" y="75mm" width="2.5mm" height="2.5mm"/><rect x="15mm" y="75mm" width="2.5mm" height="2.5mm"/><rect x="17.5mm" y="75mm" width="2.5mm" height="2.5mm"/><rect x="20mm" y="75mm" width="2.5mm" height="2.5mm"/><rect x="22.5mm" y="75mm" width="2.5mm" height="2.5mm"/><rect x="25mm" y="75mm" width="2.5mm" height="2.5mm"/><rect x="30mm" y="75mm" width="2.5mm" height="2.5mm"/><rect x="37.5mm" y="75mm" width="2.5mm" height="2.5mm"/><rect x="40mm" y="75mm" width="2.5mm" height="2.5mm"/><rect x="47.5mm" y="75mm" width="2.5mm" height="2.5mm"/><rect x="50mm" y="75mm" width="2.5mm" height="2.5mm"/><rect x="52.5mm" y="75mm" width="2.5mm" height="2.5mm"/><rect x="60mm" y="75mm" width="2.5mm" height="2.5mm"/><rect x="67.5mm" y="75mm" width="2.5mm" height="2.5mm"/><rect x="70mm" y="75mm" width="2.5mm" height="2.5mm"/><rect x="75mm" y="75mm" width="2.5mm" height="2.5mm"/><rect x="80mm" y="75mm" width="2.5mm" height="2.5mm"/><rect x="85mm" y="75mm" width="2.5mm" height="2.5mm"/><rect x="87.5mm" y="75mm" width="2.5mm" height="2.5mm"/><rect x="10mm" y="77.5mm" width="2.5mm" height="2.5mm"/><rect x="25mm" y="77.5mm" width="2.5mm" height="2.5mm"/><rect x="32.5mm" y="77.5mm" width="2.5mm" height="2.5mm"/><rect x="35mm" y="77.5mm" width="2.5mm" height="2.5mm"/><rect x="37.5mm" y="77.5mm" width="2.5mm" height="2.5mm"/><rect x="45mm" y="77.5mm" width="2.5mm" height="2.5mm"/><rect x="50mm" y="77.5mm" width="2.5mm" height="2.5mm"/><rect x="55mm" y="77.5mm" width="2.5mm" height="2.5mm"/><rect x="60mm" y="77.5mm" width="2.5mm" height="2.5mm"/><rect x="62.5mm" y="77.5mm" width="2.5mm" height="2.5mm"/><rect x="65mm" y="77.5mm" width="2.5mm" height="2.5mm"/><rect x="67.5mm" y="77.5mm" width="2.5mm" height="2.5mm"/><rect x="70mm" y="77.5mm" width="2.5mm" height="2.5mm"/><rect x="80mm" y="77.5mm" width="2.5mm" height="2.5mm"/><rect x="82.5mm" y="77.5mm" width="2.5mm" height="2.5mm"/><rect x="85mm" y="77.5mm" width="2.5mm" height="2.5mm"/><rect x="90mm" y="77.5mm" width="2.5mm" height="2.5mm"/><rect x="10mm" y="80mm" width="2.5mm" height="2.5mm"/><rect x="15mm" y="80mm" width="2.5mm" height="2.5mm"/><rect x="17.5mm" y="80mm" width="2.5mm" height="2.5mm"/><rect x="20mm" y="80mm" width="2.5mm" height="2.5mm"/><rect x="25mm" y="80mm" width="2.5mm" height="2.5mm"/><rect x="30mm" y="80mm" width="2.5mm" height="2.5mm"/><rect x="37.5mm" y="80mm" width="2.5mm" height="2.5mm"/><rect x="52.5mm" y="80mm" width="2.5mm" height="2.5mm"/><rect x="70mm" y="80mm" width="2.5mm" height="2.5mm"/><rect x="72.5mm" y="80mm" width="2.5mm" height="2.5mm"/><rect x="75mm" y="80mm" width="2.5mm" height="2.5mm"/><rect x="77.5mm" y="80mm" width="2.5mm" height="2.5mm"/><rect x="80mm" y="80mm" width="2.5mm" height="2.5mm"/><rect x="87.5mm" y="80mm" width="2.5mm" height="2.5mm"/><rect x="90mm" y="80mm" width="2.5mm" height="2.5mm"/><rect x="10mm" y="82.5mm" width="2.5mm" height="2.5mm"/><rect x="15mm" y="82.5mm" width="2.5mm" height="2.5mm"/><rect x="17.5mm" y="82.5mm" width="2.5mm" height="2.5mm"/><rect x="20mm" y="82.5mm" width="2.5mm" height="2.5mm"/><rect x="25mm" y="82.5mm" width="2.5mm" height="2.5mm"/><rect x="30mm" y="82.5mm" width="2.5mm" height="2.5mm"/><rect x="32.5mm" y="82.5mm" width="2.5mm" height="2.5mm"/><rect x="40mm" y="82.5mm" width="2.5mm" height="2.5mm"/><rect x="42.5mm" y="82.5mm" width="2.5mm" height="2.5mm"/><rect x="45mm" y="82.5mm" width="2.5mm" height="2.5mm"/><rect x="50mm" y="82.5mm" width="2.5mm" height="2.5mm"/><rect x="52.5mm" y="82.5mm" width="2.5mm" height="2.5mm"/><rect x="55mm" y="82.5mm" width="2.5mm" height="2.5mm"/><rect x="57.5mm" y="82.5mm" width="2.5mm" height="2.5mm"/><rect x="60mm" y="82.5mm" width="2.5mm" height="2.5mm"/><rect x="67.5mm" y="82.5mm" width="2.5mm" height="2.5mm"/><rect x="80mm" y="82.5mm" width="2.5mm" height="2.5mm"/><rect x="82.5mm" y="82.5mm" width="2.5mm" height="2.5mm"/><rect x="87.5mm" y="82.5mm" width="2.5mm" height="2.5mm"/><rect x="90mm" y="82.5mm" width="2.5mm" height="2.5mm"/><rect x="10mm" y="85mm" width="2.5mm" height="2.5mm"/><rect x="15mm" y="85mm" width="2.5mm" height="2.5mm"/><rect x="17.5mm" y="85mm" width="2.5mm" height="2.5mm"/><rect x="20mm" y="85mm" width="2.5mm" height="2.5mm"/><rect x="25mm" y="85mm" width="2.5mm" height="2.5mm"/><rect x="30mm" y="85mm" width="2.5mm" height="2.5mm"/><rect x="32.5mm" y="85mm" width="2.5mm" height="2.5mm"/><rect x="35mm" y="85mm" width="2.5mm" height="2.5mm"/><rect x="42.5mm" y="85mm" width="2.5mm" height="2.5mm"/><rect x="45mm" y="85mm" width="2.5mm" height="2.5mm"/><rect x="47.5mm" y="85mm" width="2.5mm" height="2.5mm"/><rect x="50mm" y="85mm" width="2.5mm" height="2.5mm"/><rect x="55mm" y="85mm" width="2.5mm" height="2.5mm"/><rect x="65mm" y="85mm" width="2.5mm" height="2.5mm"/><rect x="70mm" y="85mm" width="2.5mm" height="2.5mm"/><rect x="75mm" y="85mm" width="2.5mm" height="2.5mm"/><rect x="85mm" y="85mm" width="2.5mm" height="2.5mm"/><rect x="10mm" y="87.5mm" width="2.5mm" height="2.5mm"/><rect x="25mm" y="87.5mm" width="2.5mm" height="2.5mm"/><rect x="30mm" y="87.5mm" width="2.5mm" height="2.5mm"/><rect x="40mm" y="87.5mm" width="2.5mm" height="2.5mm"/><rect x="42.5mm" y="87.5mm" width="2.5mm" height="2.5mm"/><rect x="50mm" y="87.5mm" width="2.5mm" height="2.5mm"/><rect x="55mm" y="87.5mm" width="2.5mm" height="2.5mm"/><rect x="60mm" y="87.5mm" width="2.5mm" height="2.5mm"/><rect x="62.5mm" y="87.5mm" width="2.5mm" height="2.5mm"/><rect x="65mm" y="87.5mm" width="2.5mm" height="2.5mm"/><rect x="72.5mm" y="87.5mm" width="2.5mm" height="2.5mm"/><rect x="75mm" y="87.5mm" width="2.5mm" height="2.5mm"/><rect x="82.5mm" y="87.5mm" width="2.5mm" height="2.5mm"/><rect x="85mm" y="87.5mm" width="2.5mm" height="2.5mm"/><rect x="10mm" y="90mm" width="2.5mm" height="2.5mm"/><rect x="12.5mm" y="90mm" width="2.5mm" height="2.5mm"/><rect x="15mm" y="90mm" width="2.5mm" height="2.5mm"/><rect x="17.5mm" y="90mm" width="2.5mm" height="2.5mm"/><rect x="20mm" y="90mm" width="2.5mm" height="2.5mm"/><rect x="22.5mm" y="90mm" width="2.5mm" height="2.5mm"/><rect x="25mm" y="90mm" width="2.5mm" height="2.5mm"/><rect x="30mm" y="90mm" width="2.5mm" height="2.5mm"/><rect x="40mm" y="90mm" width="2.5mm" height="2.5mm"/><rect x="45mm" y="90mm" width="2.5mm" height="2.5mm"/><rect x="52.5mm" y="90mm" width="2.5mm" height="2.5mm"/><rect x="65mm" y="90mm" width="2.5mm" height="2.5mm"/><rect x="67.5mm" y="90mm" width="2.5mm" height="2.5mm"/><rect x="70mm" y="90mm" width="2.5mm" height="2.5mm"/><rect x="75mm" y="90mm" width="2.5mm" height="2.5mm"/><rect x="77.5mm" y="90mm" width="2.5mm" height="2.5mm"/><rect x="87.5mm" y="90mm" width="2.5mm" height="2.5mm"/></svg>